<?xml version="1.0" encoding="UTF-8" standalone="no"?>
<!-- Created with Inkscape (http://www.inkscape.org/) -->

<svg
   width="210mm"
   height="297mm"
   viewBox="0 0 210 297"
   version="1.1"
   id="svg5"
   inkscape:version="1.2 (dc2aedaf03, 2022-05-15)"
   sodipodi:docname="border1.svg"
   xmlns:inkscape="http://www.inkscape.org/namespaces/inkscape"
   xmlns:sodipodi="http://sodipodi.sourceforge.net/DTD/sodipodi-0.dtd"
   xmlns="http://www.w3.org/2000/svg"
   xmlns:svg="http://www.w3.org/2000/svg">
  <sodipodi:namedview
     id="namedview7"
     pagecolor="#ffffff"
     bordercolor="#000000"
     borderopacity="0.25"
     inkscape:showpageshadow="2"
     inkscape:pageopacity="0.0"
     inkscape:pagecheckerboard="0"
     inkscape:deskcolor="#ffffff"
     inkscape:document-units="mm"
     showgrid="false"
     showborder="false"
     inkscape:zoom="0.23830317"
     inkscape:cx="-65.043197"
     inkscape:cy="725.966"
     inkscape:window-width="1366"
     inkscape:window-height="715"
     inkscape:window-x="-8"
     inkscape:window-y="22"
     inkscape:window-maximized="1"
     inkscape:current-layer="g3197" />
  <defs
     id="defs2" />
  <g
     inkscape:label="Layer 1"
     inkscape:groupmode="layer"
     id="layer1">
    <g
       id="g3197"
       transform="rotate(90,34.300941,130.95421)">
      <rect
         style="fill:#909050;fill-opacity:1;stroke-width:4.67803;stroke-linecap:round;stroke-linejoin:bevel;stroke-dasharray:none"
         id="rect9190"
         width="794.78375"
         height="445.72293"
         x="-622.69067"
         y="-158.82898"
         transform="rotate(-90)" />
      <path
         id="rect7559"
         style="fill:#000000;fill-opacity:1;stroke-width:1.78845;stroke-linecap:round;stroke-linejoin:bevel;stroke-dasharray:none"
         d="m -158.82898,622.69067 h 6.61458 33.07292 325.90142 v -6.61458 h -325.90142 v -33.07292 h -33.07292 l 0,-673.641269 h -6.61458 l 0,706.714189 z m 6.61458,-6.61458 v -26.45834 h 26.45833 v 26.45834 z m 6.61458,-6.61459 h 13.22917 v -13.22916 h -13.22917 z m 0,-33.07291 h 6.61459 26.45833 v 26.45833 6.61458 h 6.61458 312.67226 v -6.61458 H -105.91232 V 576.38859 569.774 h -6.61458 -26.45833 l 0,-660.412099 h -6.61459 l 0,660.412099 z"
         sodipodi:nodetypes="ccccccccccccccccccccccccccccccccccccccc" />
      <path
         id="path10644"
         style="fill:#000000;fill-opacity:1;stroke-width:1.78845;stroke-linecap:round;stroke-linejoin:bevel;stroke-dasharray:none"
         d="m 288.21492,622.69067 h -6.61458 -33.07292 -70.30579 v -6.61458 h 70.30579 v -33.07292 h 33.07292 v -70.30579 h 6.61458 v 103.37871 z m -6.61458,-6.61458 v -26.45834 h -26.45833 v 26.45834 z m -6.61458,-6.61459 h -13.22917 v -13.22916 h 13.22917 z m 0,-33.07291 h -6.61459 -26.45833 v 26.45833 6.61458 h -6.61459 -57.07662 v -6.61458 h 57.07662 V 576.38859 569.774 h 6.61459 26.45833 v -57.07662 h 6.61459 V 569.774 Z" />
      <path
         id="path10646"
         style="fill:#000000;fill-opacity:1;stroke-width:1.78845;stroke-linecap:round;stroke-linejoin:bevel;stroke-dasharray:none"
         d="m -158.82898,-172.09308 h 6.61458 33.07292 70.305783 v 6.61458 h -70.305783 v 33.07292 h -33.07292 v 70.305791 h -6.61458 V -165.4785 Z m 6.61458,6.61458 v 26.45834 h 26.45833 v -26.45834 z m 6.61458,6.61459 h 13.22917 v 13.22916 h -13.22917 z m 0,33.07291 h 6.61459 26.45833 v -26.45833 -6.61458 h 6.61458 57.076623 v 6.61458 h -57.076623 v 26.45833 6.61459 h -6.61458 -26.45833 v 57.076621 h -6.61459 v -57.076621 z" />
      <path
         id="path10648"
         style="fill:#000000;fill-opacity:1;stroke-width:1.78845;stroke-linecap:round;stroke-linejoin:bevel;stroke-dasharray:none"
         d="m 288.21492,-172.09308 h -6.61458 -33.07292 -332.516008 v 6.61458 H 248.52742 v 33.07292 h 33.07292 l 0,669.85719 h 6.61458 l 0,-702.93011 z m -6.61458,6.61458 v 26.45834 h -26.45833 v -26.45834 z m -6.61458,6.61459 h -13.22917 v 13.22916 h 13.22917 z m 0,33.07291 h -6.61459 -26.45833 v -26.45833 -6.61458 h -6.61459 -319.286838 v 6.61458 H 235.29825 v 26.45833 6.61459 h 6.61459 26.45833 l 0,656.62802 h 6.61459 l 0,-656.62802 z"
         sodipodi:nodetypes="ccccccccccccccccccccccccccccccccccccccc" />
    </g>
  </g>
</svg>
