<?xml version="1.0" encoding="UTF-8" standalone="no"?>
<!-- Created with Inkscape (http://www.inkscape.org/) -->

<svg
   width="210mm"
   height="297mm"
   viewBox="0 0 210 297"
   version="1.1"
   id="svg13567"
   inkscape:version="1.2 (dc2aedaf03, 2022-05-15)"
   sodipodi:docname="Logo1.svg"
   xmlns:inkscape="http://www.inkscape.org/namespaces/inkscape"
   xmlns:sodipodi="http://sodipodi.sourceforge.net/DTD/sodipodi-0.dtd"
   xmlns="http://www.w3.org/2000/svg"
   xmlns:svg="http://www.w3.org/2000/svg">
  <sodipodi:namedview
     id="namedview13569"
     pagecolor="#ffffff"
     bordercolor="#000000"
     borderopacity="0.25"
     inkscape:showpageshadow="2"
     inkscape:pageopacity="0.0"
     inkscape:pagecheckerboard="0"
     inkscape:deskcolor="#ffffff"
     inkscape:document-units="mm"
     showgrid="false"
     showborder="false"
     showguides="true"
     inkscape:zoom="1.4142136"
     inkscape:cx="655.13443"
     inkscape:cy="490.025"
     inkscape:window-width="1366"
     inkscape:window-height="715"
     inkscape:window-x="-8"
     inkscape:window-y="22"
     inkscape:window-maximized="1"
     inkscape:current-layer="layer1" />
  <defs
     id="defs13564" />
  <g
     inkscape:label="Layer 1"
     inkscape:groupmode="layer"
     id="layer1">
    <g
       aria-label="VINTAGE LOGO DESIGN"
       id="text17735"
       style="font-size:6.35px;line-height:0;font-family:'Times New Roman';-inkscape-font-specification:'Times New Roman, Normal';letter-spacing:0.169333px;stroke-width:3.76499;stroke-linecap:round;stroke-linejoin:bevel;opacity:1">
      <path
         d="m 131.19838,116.59723 0.10376,0.0489 q -0.0587,0.21912 -0.0151,0.36652 0.0673,0.21343 0.29639,0.46196 l 2.611,2.85239 -0.0489,0.10377 -3.95017,-0.12099 q -0.30398,-0.01 -0.38122,0.009 -0.12,0.0291 -0.2166,0.11041 -0.0981,0.0772 -0.19408,0.24443 l -0.10377,-0.0489 0.73252,-1.5537 0.10376,0.0489 q -0.099,0.27552 -0.0716,0.38446 0.0275,0.10894 0.12844,0.15654 0.14023,0.0661 0.49833,0.0773 l 2.68576,0.0836 -1.77843,-1.9354 q -0.26318,-0.28519 -0.38938,-0.34469 -0.0813,-0.0383 -0.1926,0.009 -0.11406,0.0456 -0.23615,0.2246 -0.009,0.0127 -0.0309,0.0437 l -0.10377,-0.0489 z"
         style="stroke-width:3.765"
         id="path25162" />
      <path
         d="m 136.1113,116.47413 0.0976,0.0603 -0.94773,1.53199 -0.0976,-0.0603 0.0783,-0.12657 q 0.13703,-0.22149 0.0698,-0.40162 -0.0452,-0.11548 -0.36692,-0.31449 l -2.30986,-1.42893 q -0.27159,-0.16801 -0.37981,-0.18757 -0.0822,-0.0144 -0.18026,0.038 -0.13506,0.0769 -0.21336,0.20344 l -0.0783,0.12657 -0.0976,-0.0604 0.94773,-1.53199 0.0976,0.0604 -0.0799,0.1292 q -0.13539,0.21886 -0.0682,0.39898 0.0436,0.11812 0.36529,0.31713 l 2.30986,1.42893 q 0.27159,0.16802 0.37981,0.18757 0.0822,0.0144 0.18189,-0.0406 0.13343,-0.0742 0.21173,-0.2008 z"
         style="stroke-width:3.765"
         id="path25164" />
      <path
         d="m 132.98005,113.68066 0.70714,-0.89547 4.0677,-0.063 -1.90287,-1.50268 q -0.30417,-0.2402 -0.4334,-0.23163 -0.1733,0.009 -0.32703,0.20399 l -0.0903,0.11437 -0.09,-0.0711 0.90699,-1.14854 0.09,0.0711 -0.0922,0.1168 q -0.16526,0.20927 -0.1079,0.39679 0.0356,0.11503 0.31299,0.33409 l 2.78131,2.19637 -0.0692,0.0876 -4.3751,0.077 2.03184,1.60452 q 0.30417,0.2402 0.43148,0.23407 0.17522,-0.0118 0.32703,-0.204 l 0.0922,-0.1168 0.09,0.0711 -0.90699,1.14854 -0.09,-0.0711 0.0903,-0.11437 q 0.16718,-0.2117 0.10982,-0.39922 -0.0356,-0.11503 -0.31299,-0.33409 l -2.29464,-1.81205 q -0.28128,0.011 -0.39438,0.0441 -0.11118,0.0307 -0.27079,0.13779 -0.0776,0.0533 -0.191,0.19684 z"
         style="stroke-width:3.765"
         id="path25166" />
      <path
         d="m 139.0465,106.94244 0.7181,0.67724 -0.0848,0.0818 q -0.20539,-0.16374 -0.32529,-0.20316 -0.19404,-0.0627 -0.36819,-0.011 -0.17408,0.0473 -0.3615,0.22817 l -0.42617,0.41121 2.23044,2.31158 q 0.26911,0.27891 0.3961,0.28995 0.17521,0.0119 0.35148,-0.15818 l 0.10487,-0.10119 0.0797,0.0826 -1.28298,1.23793 -0.0796,-0.0825 0.1071,-0.10334 q 0.19188,-0.18516 0.16026,-0.37869 -0.0198,-0.11876 -0.26524,-0.37312 l -2.23045,-2.31159 -0.36369,0.35093 q -0.21197,0.20453 -0.27108,0.32189 -0.0751,0.15434 -0.0414,0.35449 0.0337,0.20015 0.21616,0.42049 l -0.0848,0.0818 -0.64893,-0.74398 z"
         style="stroke-width:3.765"
         id="path25168" />
      <path
         d="m 143.36371,107.18117 -1.31209,0.96343 0.16279,0.70366 q 0.06,0.25983 0.13157,0.3573 0.0569,0.0775 0.17341,0.0842 0.11718,0.002 0.37495,-0.15992 l 0.0679,0.0925 -1.06717,0.78359 -0.0679,-0.0925 q 0.1849,-0.19347 0.20334,-0.29933 0.0394,-0.21355 -0.0754,-0.69471 l -0.85585,-3.66446 0.0875,-0.0642 3.24962,1.95294 q 0.39203,0.23529 0.58224,0.25334 0.19086,0.0137 0.40747,-0.1261 l 0.0679,0.0925 -1.33707,0.98178 -0.0679,-0.0925 q 0.19509,-0.15864 0.22286,-0.2675 0.0303,-0.1107 -0.0303,-0.19318 -0.0807,-0.10996 -0.35504,-0.27398 z m -0.20578,-0.13356 -1.58045,-0.94749 0.41582,1.80265 z"
         style="stroke-width:3.765"
         id="path25170" />
      <path
         d="m 147.1721,101.61252 0.70946,1.12672 -0.0962,0.0502 q -0.37498,-0.36402 -0.72201,-0.46639 -0.50034,-0.14835 -1.02279,0.12387 -0.71217,0.37109 -0.78966,1.1282 -0.0628,0.6376 0.27958,1.29477 0.27795,0.53345 0.71342,0.86594 0.43547,0.3325 0.87564,0.36536 0.44149,0.0287 0.79345,-0.15471 0.20622,-0.10746 0.37148,-0.26 0.16526,-0.15253 0.29098,-0.3474 l -0.56164,-1.07788 q -0.14615,-0.28047 -0.23456,-0.34279 -0.0871,-0.0665 -0.20075,-0.0632 -0.11235,-9e-4 -0.33783,0.11659 l -0.0544,-0.10449 1.44359,-0.7522 0.0545,0.10449 -0.0688,0.0358 q -0.21447,0.11175 -0.21971,0.29629 -0.002,0.13039 0.15419,0.43011 l 0.59459,1.14113 q -0.22738,0.33524 -0.4938,0.57545 -0.26642,0.24021 -0.64312,0.4365 -1.08064,0.56307 -2.00263,0.16243 -0.69149,-0.30048 -1.04539,-0.97966 -0.25646,-0.49219 -0.25496,-1.06636 0.001,-0.68233 0.34009,-1.22608 0.28506,-0.4527 0.84325,-0.74355 0.20347,-0.10603 0.38565,-0.159 0.18492,-0.0544 0.54888,-0.1007 0.18407,-0.0225 0.23632,-0.0497 0.0522,-0.0272 0.0636,-0.0926 0.0127,-0.0696 -0.0521,-0.21409 z"
         style="stroke-width:3.765"
         id="path25172" />
      <path
         d="m 149.87089,100.87091 0.55273,1.56731 0.87137,-0.3073 q 0.33919,-0.11962 0.41714,-0.26218 0.10462,-0.18814 0.003,-0.53352 l 0.10819,-0.0382 0.48673,1.38017 -0.10819,0.0382 q -0.14302,-0.27505 -0.21283,-0.34248 -0.0887,-0.0838 -0.22924,-0.1 -0.14051,-0.0162 -0.38906,0.0714 l -0.87138,0.3073 0.46095,1.30707 q 0.0928,0.26316 0.13683,0.3134 0.043,0.0473 0.11384,0.0618 0.0698,0.0115 0.23357,-0.0462 l 0.67254,-0.23718 q 0.33627,-0.11859 0.47183,-0.21899 0.13555,-0.10041 0.22744,-0.28734 0.11735,-0.24523 0.17852,-0.67777 l 0.11696,-0.0413 0.008,1.11484 -3.05567,1.07762 -0.0382,-0.1082 0.14035,-0.0495 q 0.14036,-0.0495 0.24238,-0.1611 0.0771,-0.0798 0.0762,-0.1847 0.002,-0.10594 -0.1,-0.39542 l -0.9085,-2.57612 q -0.13303,-0.3772 -0.23999,-0.43812 -0.14651,-0.0798 -0.39214,0.007 l -0.14035,0.0495 -0.0382,-0.10819 3.05567,-1.077609 0.35013,0.852979 -0.11404,0.0402 q -0.17175,-0.29122 -0.28902,-0.38137 -0.11435,-0.0912 -0.28221,-0.10103 -0.13243,-0.003 -0.42776,0.10154 z"
         style="stroke-width:3.765"
         id="path25174" />
      <path
         d="m 158.89798,101.59924 0.10442,0.006 -0.1827,1.18233 -3.21806,0.49308 -0.0174,-0.1134 0.15631,-0.0239 q 0.26357,-0.0404 0.35068,-0.22939 0.0493,-0.10793 -0.005,-0.46345 l -0.4109,-2.681717 q -0.0596,-0.389232 -0.16048,-0.474157 -0.14019,-0.116537 -0.37618,-0.08038 l -0.15631,0.02395 -0.0174,-0.113398 1.88179,-0.288338 0.0174,0.113399 q -0.33147,0.04765 -0.45646,0.132676 -0.12193,0.08455 -0.15594,0.190142 -0.034,0.105588 0.0228,0.476431 l 0.4001,2.61122 q 0.039,0.25438 0.10257,0.34188 0.0466,0.0587 0.12796,0.0776 0.0813,0.0189 0.48281,-0.0426 l 0.30341,-0.0465 q 0.47811,-0.0733 0.6604,-0.17333 0.18228,-0.10008 0.31441,-0.30226 0.13167,-0.20524 0.23187,-0.61583 z"
         style="stroke-width:3.765"
         id="path25176" />
      <path
         d="m 161.76619,98.350731 q 0.81852,-0.0076 1.4227,0.610024 0.60725,0.6145 0.6159,1.544635 0.009,0.95804 -0.58981,1.59615 -0.59871,0.63811 -1.45754,0.64609 -0.86812,0.008 -1.46604,-0.60342 -0.59482,-0.61151 -0.60393,-1.59126 -0.009,-1.001441 0.66692,-1.640272 0.58708,-0.554283 1.4118,-0.561947 z m -0.0568,0.22688 q -0.56428,0.0052 -0.90144,0.426974 -0.41993,0.524824 -0.41059,1.529365 0.01,1.02936 0.45499,1.58024 0.34186,0.41853 0.89685,0.41337 0.59218,-0.005 0.97234,-0.47104 0.38327,-0.46557 0.37402,-1.46082 -0.01,-1.078956 -0.43972,-1.605186 -0.34496,-0.418492 -0.94645,-0.412903 z"
         style="stroke-width:3.765"
         id="path25178" />
      <path
         d="m 168.72653,98.951551 -0.0848,1.328779 -0.10738,-0.0157 q -0.0907,-0.514667 -0.31207,-0.800891 -0.31867,-0.413284 -0.90157,-0.498612 -0.79458,-0.116317 -1.30081,0.451973 -0.42437,0.479996 -0.5317,1.21322 -0.0871,0.59517 0.0711,1.11972 0.15824,0.52454 0.49577,0.80897 0.34105,0.28182 0.73374,0.3393 0.23009,0.0337 0.45338,0.007 0.22328,-0.0268 0.43931,-0.11117 l 0.17605,-1.20261 q 0.0458,-0.31293 0.0106,-0.41522 -0.0316,-0.10491 -0.1257,-0.16881 -0.0905,-0.0665 -0.34211,-0.10336 l 0.0171,-0.11658 1.61064,0.23578 -0.0171,0.11658 -0.0767,-0.0112 q -0.2393,-0.035 -0.35162,0.11148 -0.078,0.10453 -0.12693,0.43893 l -0.18637,1.27317 q -0.38065,0.13857 -0.73728,0.17724 -0.35663,0.0387 -0.77693,-0.0229 -1.20568,-0.1765 -1.71836,-1.04122 -0.3845,-0.64854 -0.27358,-1.40631 0.0804,-0.54915 0.41788,-1.013665 0.4005,-0.55243 0.99374,-0.794619 0.49619,-0.199991 1.11897,-0.108824 0.22702,0.03323 0.40571,0.09699 0.18175,0.06421 0.50387,0.239843 0.16237,0.08957 0.22066,0.09811 0.0583,0.0085 0.10581,-0.03778 0.051,-0.04894 0.0831,-0.20405 z"
         style="stroke-width:3.765"
         id="path25180" />
      <path
         d="m 172.44407,99.920961 q 0.78227,0.241019 1.17064,1.012809 0.39226,0.76975 0.11837,1.65868 -0.28211,0.91561 -1.04616,1.34206 -0.76406,0.42645 -1.58484,0.17356 -0.82968,-0.25563 -1.21396,-1.01967 -0.38131,-0.76313 -0.0928,-1.69948 0.29488,-0.95709 1.13302,-1.36071 0.72755,-0.350098 1.51574,-0.107249 z m -0.12295,0.198959 q -0.53928,-0.166157 -0.98848,0.13344 -0.55933,0.37273 -0.85513,1.33278 -0.3031,0.98376 -0.0458,1.6438 0.19882,0.5025 0.72922,0.66592 0.56596,0.17438 1.06942,-0.15392 0.50642,-0.32739 0.79948,-1.27855 0.31771,-1.03117 0.0679,-1.66294 -0.20178,-0.50341 -0.77663,-0.68053 z"
         style="stroke-width:3.765"
         id="path25182" />
      <path
         d="m 175.22088,105.50931 0.0557,-0.10028 0.13823,0.0768 q 0.23309,0.1295 0.41348,0.0346 0.10933,-0.0563 0.2825,-0.368 l 1.31915,-2.37426 q 0.19125,-0.34421 0.16354,-0.47311 -0.0394,-0.17798 -0.24814,-0.29394 l -0.13822,-0.0768 0.0557,-0.10029 1.49611,0.83125 q 0.82395,0.45778 1.14828,0.88273 0.32704,0.42644 0.34478,1.00737 0.0205,0.58244 -0.29728,1.15432 -0.42616,0.76703 -1.17846,1.02298 -0.84234,0.28396 -1.91293,-0.31086 z m 1.19648,0.31716 q 0.30205,0.26714 0.53514,0.39664 0.6288,0.34937 1.28894,0.13798 0.66014,-0.21139 1.08028,-0.96758 0.42315,-0.7616 0.25242,-1.43108 -0.17073,-0.66947 -0.82121,-1.03088 -0.24393,-0.13553 -0.59929,-0.23011 z"
         style="stroke-width:3.765"
         id="path25184" />
      <path
         d="m 182.73067,105.43939 -1.00572,1.32306 0.73559,0.55915 q 0.28634,0.21765 0.44827,0.20444 0.21467,-0.016 0.44714,-0.29106 l 0.0913,0.0694 -0.88563,1.16509 -0.0913,-0.0694 q 0.1512,-0.27064 0.16918,-0.36603 0.0212,-0.12016 -0.0424,-0.24646 -0.0637,-0.1263 -0.27349,-0.28579 l -0.73559,-0.55914 -0.83871,1.10338 q -0.16887,0.22215 -0.18665,0.28653 -0.0159,0.0619 0.0109,0.12906 0.0287,0.0647 0.16696,0.16975 l 0.56773,0.43156 q 0.28387,0.21578 0.44225,0.27385 0.15837,0.0581 0.36504,0.0321 0.26938,-0.0367 0.66436,-0.2233 l 0.0987,0.0751 -0.92675,0.61972 -2.57949,-1.96075 0.0694,-0.0913 0.11849,0.0901 q 0.11848,0.0901 0.26778,0.11397 0.10901,0.0206 0.1962,-0.0378 0.0897,-0.0565 0.27542,-0.30085 l 1.65305,-2.17466 q 0.24204,-0.31843 0.23415,-0.44127 -0.0138,-0.16628 -0.22115,-0.32389 l -0.11849,-0.0901 0.0694,-0.0913 2.57948,1.96076 -0.52024,0.76127 -0.0963,-0.0732 q 0.14893,-0.30352 0.15981,-0.45104 0.0133,-0.14565 -0.0707,-0.2913 -0.0706,-0.11208 -0.3199,-0.30159 z"
         style="stroke-width:3.765"
         id="path25186" />
      <path
         d="m 187.57139,109.24013 -1.01852,1.03791 -0.0819,-0.0804 q 0.25334,-0.33784 0.32306,-0.61695 0.0719,-0.27694 -0.0163,-0.56772 -0.0882,-0.29078 -0.29185,-0.49057 -0.23016,-0.22585 -0.51963,-0.23189 -0.2873,-0.008 -0.46321,0.171 -0.13464,0.1372 -0.15023,0.34345 -0.0257,0.30062 0.2185,1.08325 0.19896,0.63834 0.23222,0.90991 0.0376,0.27152 -0.0412,0.51563 -0.0766,0.24629 -0.25252,0.42554 -0.33443,0.34081 -0.84322,0.32807 -0.50441,-0.0128 -0.92046,-0.42106 -0.13056,-0.12813 -0.2261,-0.26098 -0.0577,-0.0784 -0.2073,-0.35981 -0.14517,-0.28147 -0.2027,-0.33793 -0.0553,-0.0543 -0.1211,-0.0537 -0.0636,0.003 -0.18112,0.0916 l -0.0819,-0.0803 1.00983,-1.02906 0.0819,0.0803 q -0.25952,0.37957 -0.32068,0.63667 -0.059,0.25489 0.0359,0.55657 0.0971,0.30385 0.33615,0.53839 0.27663,0.27146 0.5793,0.28176 0.30488,0.0125 0.50033,-0.1867 0.10858,-0.11065 0.15737,-0.28432 0.051,-0.1715 0.0182,-0.39483 -0.0212,-0.15109 -0.19558,-0.74362 -0.17224,-0.59475 -0.21004,-0.88381 -0.0356,-0.28689 0.0323,-0.52432 0.0679,-0.23744 0.25034,-0.42333 0.31706,-0.3231 0.79295,-0.31224 0.47805,0.009 0.86091,0.38435 0.239,0.23454 0.39168,0.6146 0.0696,0.17694 0.12054,0.22689 0.0575,0.0565 0.12552,0.058 0.0724,0.002 0.19656,-0.0808 z"
         style="stroke-width:3.765"
         id="path25188" />
      <path
         d="m 186.43997,114.32109 -0.0879,0.0737 -1.15748,-1.38037 0.0879,-0.0737 0.0956,0.11404 q 0.16735,0.19957 0.35947,0.19224 0.12384,-0.007 0.41369,-0.24979 l 2.08125,-1.74519 q 0.24471,-0.2052 0.29721,-0.30182 0.0395,-0.0736 0.0205,-0.18308 -0.0306,-0.15235 -0.12626,-0.26639 l -0.0956,-0.11404 0.0879,-0.0737 1.15748,1.38037 -0.0879,0.0737 -0.0976,-0.11642 q -0.16536,-0.1972 -0.35748,-0.18986 -0.12583,0.004 -0.41569,0.24741 l -2.08124,1.74519 q -0.24471,0.2052 -0.29722,0.30183 -0.0395,0.0736 -0.0185,0.18545 0.0286,0.14997 0.12428,0.26401 z"
         style="stroke-width:3.765"
         id="path25190" />
      <path
         d="m 192.34792,115.48929 -1.04708,0.82247 -0.0598,-0.0905 q 0.32317,-0.4107 0.389,-0.76647 0.0957,-0.51304 -0.22927,-1.00443 -0.44293,-0.66985 -1.204,-0.66842 -0.64068,0.004 -1.2588,0.41234 -0.50174,0.33178 -0.78729,0.79938 -0.28554,0.4676 -0.27258,0.9088 0.0172,0.44208 0.23615,0.77313 0.12827,0.19397 0.29712,0.34252 0.16885,0.14855 0.37571,0.25338 l 1.01382,-0.67039 q 0.26381,-0.17444 0.31662,-0.26883 0.0571,-0.0935 0.042,-0.20623 -0.0108,-0.11184 -0.15099,-0.32392 l 0.0983,-0.065 0.89784,1.3578 -0.0983,0.065 -0.0428,-0.0647 q -0.1334,-0.20173 -0.31748,-0.1878 -0.1299,0.0115 -0.4118,0.19796 l -1.07332,0.70972 q -0.35702,-0.19139 -0.62356,-0.43146 -0.26654,-0.24007 -0.50083,-0.5944 -0.6721,-1.01641 -0.36923,-1.97498 0.22715,-0.71893 0.86597,-1.14134 0.46295,-0.30612 1.03417,-0.36417 0.67877,-0.0697 1.25474,0.21111 0.47983,0.23658 0.82699,0.7616 0.12655,0.19138 0.19813,0.36708 0.0733,0.17829 0.15707,0.53548 0.0415,0.18075 0.074,0.22989 0.0325,0.0491 0.0987,0.0537 0.0705,0.005 0.20753,-0.074 z"
         style="stroke-width:3.765"
         id="path25192" />
      <path
         d="m 193.01093,116.75713 0.47714,1.03647 -1.78952,3.65346 2.20249,-1.01391 q 0.35206,-0.16207 0.40307,-0.28112 0.0703,-0.15867 -0.0334,-0.38399 l -0.0609,-0.13237 0.10421,-0.048 0.61198,1.32938 -0.10421,0.048 -0.0622,-0.1352 q -0.11151,-0.24221 -0.30464,-0.27618 -0.11865,-0.0205 -0.43973,0.12733 l -3.21924,1.48197 -0.0467,-0.1014 1.91648,-3.93377 -2.35176,1.08262 q -0.35206,0.16207 -0.40437,0.27831 -0.069,0.16148 0.0334,0.38399 l 0.0622,0.13519 -0.10421,0.048 -0.61197,-1.32938 0.10421,-0.048 0.0609,0.13237 q 0.1128,0.24504 0.30594,0.27901 0.11865,0.0205 0.43973,-0.12734 l 2.65594,-1.22265 q 0.11784,-0.25564 0.13961,-0.37147 0.0231,-0.11302 8e-5,-0.30383 -0.0123,-0.0933 -0.0888,-0.25952 z"
         style="stroke-width:3.765"
         id="path25194" />
    </g>
    <path
       id="path17793"
       style="color:#000000;fill:#000000;fill-opacity:1;stroke-linecap:round;stroke-linejoin:bevel;stroke:none;opacity:1"
       d="m -14.082862,182.09175 c 5.1371018,6.42963 8.2156367,14.57024 8.2156367,23.40836 0,20.7041 -16.8836237,37.58559 -37.5877267,37.58559 -11.866106,0 -22.475595,-5.5466 -29.372613,-14.17856 l 6.906339,1.60096 0.292424,-7.33787 c 5.180297,6.50268 13.170975,10.65592 22.173699,10.65592 15.699413,0 28.328009,-12.62687 28.328009,-28.32629 0,-6.69725 -2.299363,-12.83423 -6.153722,-17.67185 l 6.905935,1.60128 z"
       transform="matrix(-0.78203878,0.62322977,0.62322977,0.78203878,0,0)"
       sodipodi:nodetypes="csscccssccc" />
    <g
       aria-label="WITH INKSCAPE"
       id="text17739"
       style="font-size:6.35px;font-family:'Times New Roman';-inkscape-font-specification:'Times New Roman, Normal';letter-spacing:1.22767px;stroke-width:3.76499;stroke-linecap:round;stroke-linejoin:bevel;fill:#ffffff;opacity:1">
      <path
         d="m 141.66345,157.0069 -0.0834,0.0788 q -0.11289,-0.11941 -0.22599,-0.15329 -0.1131,-0.0339 -0.29416,0.009 -0.12146,0.0295 -0.51047,0.21377 l -3.2678,1.47648 -0.0852,-0.0901 1.29526,-2.54297 -2.60737,1.15506 -0.0767,-0.0811 1.67858,-3.30645 q 0.18804,-0.36978 0.2143,-0.44581 0.043,-0.126 0.009,-0.2432 -0.0296,-0.11708 -0.15528,-0.25001 l 0.0834,-0.0788 1.06929,1.13106 -0.0834,0.0788 -0.0511,-0.0541 q -0.1129,-0.11942 -0.22661,-0.13138 -0.11372,-0.012 -0.19033,0.0605 -0.0788,0.0745 -0.26902,0.44208 l -1.14589,2.22255 1.93702,-0.8712 0.17165,-0.33295 0.13687,-0.26593 q 0.0679,-0.15382 0.0982,-0.29334 0.0151,-0.0698 0.004,-0.14026 -0.0127,-0.0947 -0.0479,-0.16804 -0.0269,-0.0556 -0.11429,-0.14797 l 0.0834,-0.0788 1.12467,1.18964 -0.0834,0.0788 -0.0767,-0.0811 q -0.11928,-0.12617 -0.22874,-0.13363 -0.10945,-0.007 -0.20183,0.0799 -0.11491,0.10863 -0.3052,0.48054 l -1.10673,2.15566 2.23263,-1.00985 q 0.37311,-0.16499 0.48126,-0.26723 0.0518,-0.049 0.0649,-0.12539 0.0152,-0.0742 -0.0136,-0.14076 -0.0494,-0.11543 -0.17933,-0.25287 l 0.0834,-0.0788 z"
         style="stroke-width:3.765;fill:#ffffff"
         id="path25955" />
      <path
         d="m 141.26781,161.77016 -0.0706,0.0904 -1.42001,-1.1085 0.0706,-0.0904 0.11731,0.0916 q 0.20531,0.16027 0.39167,0.11301 0.11971,-0.0324 0.35247,-0.3306 l 1.67133,-2.14102 q 0.19651,-0.25174 0.2277,-0.3572 0.0233,-0.0802 -0.0182,-0.18332 -0.0618,-0.1426 -0.17906,-0.23418 l -0.11732,-0.0916 0.0706,-0.0904 1.42001,1.10849 -0.0706,0.0904 -0.11976,-0.0935 q -0.20286,-0.15835 -0.38922,-0.11109 -0.12215,0.0305 -0.35492,0.32869 l -1.67132,2.14101 q -0.19652,0.25174 -0.2277,0.3572 -0.0233,0.0802 0.0206,0.18523 0.0593,0.1407 0.17662,0.23228 z"
         style="stroke-width:3.765;fill:#ffffff"
         id="path25957" />
      <path
         d="m 147.61887,160.98791 -0.46833,0.8689 -0.10097,-0.0607 q 0.10501,-0.24077 0.11206,-0.36679 0.0103,-0.20365 -0.0847,-0.35849 -0.0908,-0.15589 -0.31395,-0.29013 l -0.50749,-0.30524 -1.65562,2.75267 q -0.19976,0.33213 -0.17756,0.45765 0.0339,0.17232 0.24375,0.29857 l 0.12488,0.0751 -0.0591,0.0983 -1.52779,-0.9189 0.0591,-0.0983 0.12753,0.0767 q 0.22851,0.13743 0.40726,0.0568 0.10959,-0.0499 0.29178,-0.35277 l 1.65561,-2.75267 -0.43309,-0.26049 q -0.25242,-0.15182 -0.38107,-0.17854 -0.16853,-0.0326 -0.35314,0.0517 -0.1846,0.0844 -0.35023,0.31761 l -0.10096,-0.0607 0.5507,-0.81936 z"
         style="stroke-width:3.765;fill:#ffffff"
         id="path25959" />
      <path
         d="m 148.77653,163.67386 1.81027,0.73385 0.45197,-1.1149 q 0.12114,-0.29884 0.12222,-0.40881 3.9e-4,-0.0835 -0.0706,-0.17248 -0.0956,-0.11905 -0.23353,-0.17496 l -0.13793,-0.0559 0.0431,-0.10631 1.66661,0.67561 -0.0431,0.10632 -0.13793,-0.0559 q -0.13792,-0.0559 -0.28827,-0.0399 -0.11059,0.009 -0.18351,0.0896 -0.0689,0.0791 -0.18537,0.36648 l -1.01924,2.51428 q -0.11998,0.29596 -0.12107,0.40593 -3.8e-4,0.0835 0.0677,0.17132 0.0985,0.12021 0.2364,0.17613 l 0.13792,0.0559 -0.0431,0.10632 -1.6666,-0.67561 0.0431,-0.10632 0.13792,0.0559 q 0.2385,0.0967 0.40477,1.5e-4 0.10911,-0.0628 0.25122,-0.41339 l 0.48109,-1.18674 -1.81028,-0.73386 -0.48109,1.18674 q -0.11997,0.29597 -0.12106,0.40594 -3.9e-4,0.0835 0.0706,0.17248 0.0956,0.11905 0.23353,0.17496 l 0.1408,0.0571 -0.0431,0.10632 -1.66948,-0.67678 0.0431,-0.10632 0.13792,0.0559 q 0.24137,0.0978 0.40764,0.001 0.10624,-0.064 0.24835,-0.41456 l 1.01924,-2.51427 q 0.12115,-0.29884 0.12223,-0.40881 3.9e-4,-0.0835 -0.0677,-0.17132 -0.0985,-0.12022 -0.2364,-0.17613 l -0.13793,-0.0559 0.0431,-0.10632 1.66948,0.67678 -0.0431,0.10632 -0.1408,-0.0571 q -0.13793,-0.0559 -0.28828,-0.0399 -0.10771,0.01 -0.18063,0.0907 -0.0718,0.078 -0.18824,0.36532 z"
         style="stroke-width:3.765;fill:#ffffff"
         id="path25961" />
      <path
         d="m 156.84563,168.21649 -0.02,0.11297 -1.77395,-0.31353 0.02,-0.11298 0.14656,0.0259 q 0.25647,0.0453 0.39894,-0.0838 0.0905,-0.0847 0.15638,-0.45725 l 0.47273,-2.67466 q 0.0556,-0.31448 0.0337,-0.42226 -0.0171,-0.0817 -0.10198,-0.15341 -0.12139,-0.097 -0.26795,-0.12293 l -0.14656,-0.0259 0.02,-0.11297 1.77394,0.31353 -0.02,0.11297 -0.14961,-0.0264 q -0.25342,-0.0448 -0.39589,0.0843 -0.0936,0.0842 -0.15944,0.45672 l -0.47272,2.67465 q -0.0556,0.31449 -0.0337,0.42226 0.017,0.0817 0.10503,0.15396 0.11834,0.0965 0.2649,0.12238 z"
         style="stroke-width:3.765;fill:#ffffff"
         id="path25963" />
      <path
         d="m 158.30006,164.36747 1.13984,0.0516 2.42519,3.26629 0.10963,-2.42218 q 0.0175,-0.38718 -0.0649,-0.48712 -0.10872,-0.13528 -0.35651,-0.1465 l -0.14558,-0.007 0.005,-0.11461 1.46198,0.0662 -0.005,0.11461 -0.14867,-0.007 q -0.26638,-0.0121 -0.38518,0.14396 -0.0726,0.096 -0.0886,0.44914 l -0.16024,3.54034 -0.1115,-0.005 -2.61601,-3.50771 -0.11705,2.58634 q -0.0175,0.38718 0.0618,0.48698 0.11181,0.13542 0.35651,0.1465 l 0.14867,0.007 -0.005,0.11461 -1.46198,-0.0662 0.005,-0.11461 0.14558,0.007 q 0.26947,0.0122 0.38827,-0.14382 0.0726,-0.096 0.0886,-0.44914 l 0.1322,-2.92086 q -0.17307,-0.22199 -0.26601,-0.29448 -0.0898,-0.0724 -0.26992,-0.13947 -0.0886,-0.0319 -0.27131,-0.0402 z"
         style="stroke-width:3.765;fill:#ffffff"
         id="path25965" />
      <path
         d="m 165.61547,166.19114 1.72354,1.34443 q 0.42426,0.333 0.70877,0.43925 0.28414,0.10316 0.55418,0.0894 l 0.0137,0.1139 -1.98551,0.23928 -0.0137,-0.11389 q 0.17855,-0.0215 0.24846,-0.0893 0.0726,-0.0712 0.0637,-0.14509 -0.009,-0.0739 -0.0467,-0.12866 -0.0348,-0.0551 -0.21719,-0.19556 l -1.61242,-1.25163 0.16212,1.34522 q 0.0382,0.31706 0.0905,0.41382 0.0401,0.0733 0.14525,0.11679 0.14127,0.0579 0.28903,0.0401 l 0.1416,-0.0171 0.0137,0.1139 -1.77926,0.21443 -0.0137,-0.11389 0.14776,-0.0178 q 0.25858,-0.0312 0.35738,-0.1961 0.062,-0.10741 0.0168,-0.48296 l -0.32499,-2.6966 q -0.0382,-0.31707 -0.0908,-0.41691 -0.0397,-0.0702 -0.14179,-0.11408 -0.14435,-0.0575 -0.29211,-0.0397 l -0.14776,0.0178 -0.0137,-0.1139 1.77926,-0.21443 0.0137,0.1139 -0.1416,0.0171 q -0.14468,0.0174 -0.2716,0.10456 -0.0895,0.0607 -0.11456,0.16371 -0.0251,0.10296 0.012,0.41079 l 0.15396,1.2775 q 0.0545,-0.0659 0.37462,-0.44178 0.81335,-0.94748 0.97044,-1.25061 0.0683,-0.13315 0.0572,-0.2255 -0.009,-0.0708 -0.0795,-0.11534 -0.0713,-0.0476 -0.22524,-0.0291 l -0.0954,0.0115 -0.0137,-0.11389 1.533,-0.18476 0.0137,0.1139 q -0.13508,0.0194 -0.24182,0.0666 -0.10674,0.0472 -0.25494,0.16501 -0.14857,0.11472 -0.35655,0.3584 -0.0603,0.0697 -0.54884,0.70636 z"
         style="stroke-width:3.765;fill:#ffffff"
         id="path25967" />
      <path
         d="m 171.4201,162.98308 0.38937,1.40107 -0.11053,0.0307 q -0.16585,-0.38835 -0.37267,-0.58832 -0.20384,-0.2008 -0.49977,-0.26981 -0.29594,-0.069 -0.57078,0.007 -0.31068,0.0864 -0.46069,0.33399 -0.15084,0.24466 -0.0836,0.48664 0.0515,0.18521 0.22227,0.30187 0.24748,0.17258 1.04732,0.35256 0.65228,0.14697 0.90407,0.254 0.25394,0.1032 0.42591,0.29355 0.17496,0.18951 0.24221,0.43149 0.12785,0.46006 -0.13765,0.89427 -0.26335,0.43039 -0.82497,0.58647 -0.17626,0.049 -0.33907,0.0653 -0.0968,0.0108 -0.41526,-4.5e-4 -0.31634,-0.0151 -0.39401,0.007 -0.0747,0.0207 -0.10705,0.078 -0.0294,0.0564 -0.0113,0.20265 l -0.11053,0.0307 -0.38605,-1.38913 0.11053,-0.0307 q 0.19889,0.41457 0.39094,0.59612 0.19122,0.17856 0.49993,0.24724 0.3117,0.0678 0.63434,-0.0218 0.37342,-0.10378 0.53371,-0.36072 0.16329,-0.25777 0.0886,-0.52663 -0.0415,-0.14937 -0.1675,-0.27848 -0.123,-0.12994 -0.33279,-0.21323 -0.14142,-0.0573 -0.74175,-0.20257 -0.60116,-0.1483 -0.87038,-0.26013 -0.26623,-0.11267 -0.43787,-0.29023 -0.17163,-0.17757 -0.24137,-0.42851 -0.12121,-0.43616 0.1262,-0.84281 0.24659,-0.40965 0.7634,-0.55328 0.32264,-0.0897 0.72811,-0.0318 0.18805,0.0282 0.25676,0.009 0.0777,-0.0216 0.11302,-0.0797 0.0375,-0.0619 0.0284,-0.21062 z"
         style="stroke-width:3.765;fill:#ffffff"
         id="path25969" />
      <path
         d="m 176.08804,161.08654 0.66784,1.26741 -0.0879,0.039 q -0.43613,-0.50861 -0.87651,-0.62181 -0.44039,-0.11319 -0.89664,0.0894 -0.38257,0.16985 -0.60465,0.50252 -0.22334,0.32983 -0.21316,0.83417 0.013,0.50309 0.29358,1.13504 0.23149,0.52143 0.56853,0.82977 0.33705,0.30835 0.76203,0.36393 0.42781,0.0543 0.85856,-0.13691 0.37407,-0.16607 0.58983,-0.45184 0.21451,-0.2886 0.34605,-0.91692 l 0.11301,0.0177 q -0.0613,0.64125 -0.34106,1.0504 -0.27973,0.40915 -0.80966,0.64442 -0.95501,0.42398 -1.7938,-0.0517 -0.62509,-0.35348 -0.94213,-1.06761 -0.2554,-0.57527 -0.21139,-1.17152 0.044,-0.59624 0.37758,-1.05983 0.33516,-0.46768 0.87076,-0.70547 0.41657,-0.18494 0.9124,-0.16081 0.1467,0.01 0.19771,-0.0131 0.0765,-0.034 0.10929,-0.11298 0.0397,-0.10922 0.0105,-0.25909 z"
         style="stroke-width:3.765;fill:#ffffff"
         id="path25971" />
      <path
         d="m 180.96333,161.50257 -1.36257,0.8906 0.12425,0.71147 q 0.0458,0.26271 0.11193,0.36393 0.0526,0.0805 0.16857,0.0935 0.11687,0.009 0.38309,-0.13927 l 0.0628,0.096 -1.10822,0.72435 -0.0628,-0.096 q 0.19516,-0.18312 0.21933,-0.28782 0.0509,-0.21109 -0.0375,-0.69779 l -0.65516,-3.7056 0.0908,-0.0594 3.13852,2.1269 q 0.37864,0.25627 0.56758,0.28465 0.18984,0.0241 0.41374,-0.10374 l 0.0628,0.096 -1.38852,0.90756 -0.0628,-0.096 q 0.20344,-0.14778 0.2371,-0.25498 0.0362,-0.10888 -0.0197,-0.19453 -0.0746,-0.1142 -0.33961,-0.2929 z m -0.1982,-0.14456 -1.52655,-1.0321 0.31711,1.82261 z"
         style="stroke-width:3.765;fill:#ffffff"
         id="path25973" />
      <path
         d="m 183.75886,158.64313 0.81464,0.91451 q 0.26399,0.29635 0.39275,0.31037 0.17872,0.0235 0.35699,-0.1353 l 0.12039,-0.10724 0.0763,0.0857 -1.34514,1.19824 -0.0763,-0.0857 0.11808,-0.10518 q 0.19911,-0.17737 0.16928,-0.38333 -0.0176,-0.11302 -0.25687,-0.38158 l -1.80664,-2.02813 q -0.26399,-0.29635 -0.39043,-0.31244 -0.18104,-0.0214 -0.35931,0.13737 l -0.11808,0.10518 -0.0763,-0.0857 1.15067,-1.025 q 0.42137,-0.37536 0.74283,-0.50393 0.31941,-0.13089 0.66966,-0.0733 0.35024,0.0576 0.60185,0.34002 0.34236,0.38432 0.30217,0.85197 -0.0379,0.46558 -0.50091,0.87805 -0.11345,0.10106 -0.25985,0.20241 -0.1464,0.10135 -0.32577,0.20299 z m -0.11755,-0.13197 q 0.14333,-0.0862 0.24856,-0.15913 0.10524,-0.073 0.17238,-0.13279 0.24078,-0.21449 0.24943,-0.55439 0.009,-0.34427 -0.25508,-0.64062 -0.18149,-0.20374 -0.41951,-0.30313 -0.24009,-0.10171 -0.4692,-0.0513 -0.23118,0.0481 -0.42566,0.22138 -0.11807,0.10518 -0.2641,0.31416 z"
         style="stroke-width:3.765;fill:#ffffff"
         id="path25975" />
      <path
         d="m 185.42789,154.17556 1.26816,1.07412 0.59718,-0.70506 q 0.23246,-0.27445 0.22781,-0.43686 -0.005,-0.21521 -0.26706,-0.46187 l 0.0741,-0.0875 1.11674,0.94587 -0.0741,0.0875 q -0.26229,-0.16527 -0.35659,-0.18826 -0.11888,-0.0276 -0.24837,0.0294 -0.12948,0.0569 -0.29981,0.25803 l -0.59718,0.70506 1.05759,0.89577 q 0.21294,0.18035 0.27629,0.2015 0.061,0.0192 0.12945,-0.004 0.0661,-0.0253 0.17833,-0.15777 l 0.46091,-0.54418 q 0.23045,-0.27208 0.2968,-0.42718 0.0663,-0.15509 0.0513,-0.36284 -0.0224,-0.27094 -0.18793,-0.67522 l 0.0802,-0.0946 0.56997,0.95816 -2.09413,2.47244 -0.0875,-0.0741 0.0962,-0.11357 q 0.0962,-0.11357 0.12795,-0.26139 0.0263,-0.10778 -0.0274,-0.19793 -0.0517,-0.0925 -0.2859,-0.29091 l -2.08442,-1.76548 q -0.30521,-0.25851 -0.42829,-0.25711 -0.16678,0.005 -0.33511,0.20376 l -0.0962,0.11356 -0.0875,-0.0741 2.09413,-2.47244 0.73275,0.55968 -0.0782,0.0923 q -0.29524,-0.16473 -0.44198,-0.18338 -0.14474,-0.021 -0.29462,0.0552 -0.11565,0.0646 -0.31805,0.30354 z"
         style="stroke-width:3.765;fill:#ffffff"
         id="path25977" />
    </g>
    <path
       id="path30406"
       style="fill:#f2f2f2;fill-opacity:1;stroke:none;stroke-width:9.26043;stroke-linecap:round;stroke-linejoin:bevel;stroke-dasharray:none;stroke-opacity:0.495;opacity:1"
       d="m 133.55798,149.62343 a 1.1009902,1.0725769 0 0 0 -1.1007,1.0728 1.1009902,1.0725769 0 0 0 1.1007,1.07228 1.1009902,1.0725769 0 0 0 1.10123,-1.07228 1.1009902,1.0725769 0 0 0 -1.10123,-1.0728 z m 56.99756,0 a 1.1009902,1.0725769 0 0 0 -1.10071,1.0728 1.1009902,1.0725769 0 0 0 1.10071,1.07228 1.1009902,1.0725769 0 0 0 1.10122,-1.07228 1.1009902,1.0725769 0 0 0 -1.10122,-1.0728 z" />
    <path
       id="path35608"
       style="fill:none;fill-opacity:1;stroke:#000000;stroke-width:0.529167;stroke-linecap:round;stroke-linejoin:bevel;stroke-dasharray:none;stroke-opacity:1;opacity:1"
       d="M 163.31801 122.57151 L 165.48756 106.1462 " />
    <path
       id="path53609"
       style="fill:none;fill-opacity:1;stroke:#000000;stroke-width:0.529167;stroke-linecap:round;stroke-linejoin:bevel;stroke-dasharray:none;stroke-opacity:1;opacity:1"
       d="M 158.62648 158.09026 L 161.25206 138.21241 " />
    <path
       id="path53607"
       style="fill:none;fill-opacity:1;stroke:#000000;stroke-width:0.529167;stroke-linecap:round;stroke-linejoin:bevel;stroke-dasharray:none;stroke-opacity:1;opacity:1"
       d="M 164.48564 126.26208 L 172.09272 107.91907 " />
    <path
       id="path53603"
       style="fill:none;fill-opacity:1;stroke:#000000;stroke-width:0.529167;stroke-linecap:round;stroke-linejoin:bevel;stroke-dasharray:none;stroke-opacity:1;opacity:1"
       d="M 152.02132 156.31738 L 158.76983 140.04464 " />
    <path
       id="path53601"
       style="fill:none;fill-opacity:1;stroke:#000000;stroke-width:0.529167;stroke-linecap:round;stroke-linejoin:bevel;stroke-dasharray:none;stroke-opacity:1;opacity:1"
       d="M 165.08945 128.16975 L 178.01397 111.34106 " />
    <path
       id="path53597"
       style="fill:none;fill-opacity:1;stroke:#000000;stroke-width:0.529167;stroke-linecap:round;stroke-linejoin:bevel;stroke-dasharray:none;stroke-opacity:1;opacity:1"
       d="M 146.10006 152.89538 L 154.45868 142.01182 " />
    <path
       id="path53595"
       style="fill:none;fill-opacity:1;stroke:#000000;stroke-width:0.529167;stroke-linecap:round;stroke-linejoin:bevel;stroke-dasharray:none;stroke-opacity:1;opacity:1"
       d="M 167.15222 128.21198 L 182.84777 116.17899 " />
    <path
       id="path53591"
       style="fill:none;fill-opacity:1;stroke:#000000;stroke-width:0.529167;stroke-linecap:round;stroke-linejoin:bevel;stroke-dasharray:none;stroke-opacity:1;opacity:1"
       d="M 141.26627 148.05746 L 156.28173 136.54585 " />
    <path
       id="path53589"
       style="fill:none;fill-opacity:1;stroke:#000000;stroke-width:0.529167;stroke-linecap:round;stroke-linejoin:bevel;stroke-dasharray:none;stroke-opacity:1;opacity:1"
       d="M 171.58226 128.1775 L 186.26473 122.10316 " />
    <path
       id="path53585"
       style="fill:none;fill-opacity:1;stroke:#000000;stroke-width:0.529167;stroke-linecap:round;stroke-linejoin:bevel;stroke-dasharray:none;stroke-opacity:1;opacity:1"
       d="M 137.84931 142.1333 L 157.07042 134.18126 " />
    <path
       id="path53583"
       style="fill:none;fill-opacity:1;stroke:#000000;stroke-width:0.529167;stroke-linecap:round;stroke-linejoin:bevel;stroke-dasharray:none;stroke-opacity:1;opacity:1"
       d="M 171.37974 130.89491 L 188.03196 128.70982 " />
    <path
       id="path53579"
       style="fill:none;fill-opacity:1;stroke:#000000;stroke-width:0.529167;stroke-linecap:round;stroke-linejoin:bevel;stroke-dasharray:none;stroke-opacity:1;opacity:1"
       d="M 136.08208 135.52664 L 155.62616 132.96208 " />
    <path
       id="path53577"
       style="fill:none;fill-opacity:1;stroke:#000000;stroke-width:0.529167;stroke-linecap:round;stroke-linejoin:bevel;stroke-dasharray:none;stroke-opacity:1;opacity:1"
       d="M 168.48177 132.96682 L 188.02905 135.54874 " />
    <path
       id="path53573"
       style="fill:none;fill-opacity:1;stroke:#000000;stroke-width:0.529167;stroke-linecap:round;stroke-linejoin:bevel;stroke-dasharray:none;stroke-opacity:1;opacity:1"
       d="M 136.08499 128.68766 L 152.7203 130.88495 " />
    <path
       id="path53571"
       style="fill:none;fill-opacity:1;stroke:#000000;stroke-width:0.529167;stroke-linecap:round;stroke-linejoin:bevel;stroke-dasharray:none;stroke-opacity:1;opacity:1"
       d="M 167.04558 134.18702 L 186.25618 142.1539 " />
    <path
       id="path53567"
       style="fill:none;fill-opacity:1;stroke:#000000;stroke-width:0.529167;stroke-linecap:round;stroke-linejoin:bevel;stroke-dasharray:none;stroke-opacity:1;opacity:1"
       d="M 137.85786 122.0825 L 152.55508 128.17763 " />
    <path
       id="path53565"
       style="fill:none;fill-opacity:1;stroke:#000000;stroke-width:0.529167;stroke-linecap:round;stroke-linejoin:bevel;stroke-dasharray:none;stroke-opacity:1;opacity:1"
       d="M 167.8358 136.55632 L 182.83419 148.07515 " />
    <path
       id="path53561"
       style="fill:none;fill-opacity:1;stroke:#000000;stroke-width:0.529167;stroke-linecap:round;stroke-linejoin:bevel;stroke-dasharray:none;stroke-opacity:1;opacity:1"
       d="M 141.27985 116.16125 L 156.97068 128.21187 " />
    <path
       id="path53559"
       style="fill:none;fill-opacity:1;stroke:#000000;stroke-width:0.529167;stroke-linecap:round;stroke-linejoin:bevel;stroke-dasharray:none;stroke-opacity:1;opacity:1"
       d="M 169.66547 142.04248 L 177.99626 152.90895 " />
    <path
       id="path53555"
       style="fill:none;fill-opacity:1;stroke:#000000;stroke-width:0.529167;stroke-linecap:round;stroke-linejoin:bevel;stroke-dasharray:none;stroke-opacity:1;opacity:1"
       d="M 146.11778 111.32745 L 159.02602 128.16464 " />
    <path
       id="path53553"
       style="fill:none;fill-opacity:1;stroke:#000000;stroke-width:0.529167;stroke-linecap:round;stroke-linejoin:bevel;stroke-dasharray:none;stroke-opacity:1;opacity:1"
       d="M 165.33308 140.03685 L 172.07209 156.3259 " />
    <path
       id="path53549"
       style="fill:none;fill-opacity:1;stroke:#000000;stroke-width:0.529167;stroke-linecap:round;stroke-linejoin:bevel;stroke-dasharray:none;stroke-opacity:1;opacity:1"
       d="M 152.04194 107.91048 L 159.63074 126.25358 " />
    <path
       id="path53547"
       style="fill:none;fill-opacity:1;stroke:#000000;stroke-width:0.529167;stroke-linecap:round;stroke-linejoin:bevel;stroke-dasharray:none;stroke-opacity:1;opacity:1"
       d="M 162.85612 138.20803 L 165.46543 158.09313 " />
    <path
       id="path53543"
       style="fill:none;fill-opacity:1;stroke:#000000;stroke-width:0.529167;stroke-linecap:round;stroke-linejoin:bevel;stroke-dasharray:none;stroke-opacity:1;opacity:1"
       d="M 158.64861 106.14326 L 160.80176 122.55213 " />
    <path
       id="path50248"
       style="fill:none;fill-opacity:1;stroke:#000000;stroke-width:0.79375;stroke-linecap:round;stroke-linejoin:bevel;stroke-dasharray:none;stroke-opacity:1;opacity:1"
       d="M 162.05703 113.65762 L 162.05702 110.08777 " />
    <path
       id="path54456"
       style="fill:none;fill-opacity:1;stroke:#000000;stroke-width:0.79375;stroke-linecap:round;stroke-linejoin:bevel;stroke-dasharray:none;stroke-opacity:1;opacity:1"
       d="M 162.05702 118.5855 L 162.05702 116.44766 " />
    <path
       id="path54452"
       style="fill:none;fill-opacity:1;stroke:#000000;stroke-width:0.79375;stroke-linecap:round;stroke-linejoin:bevel;stroke-dasharray:none;stroke-opacity:1;opacity:1"
       d="M 162.05702 147.78924 L 162.05702 137.61783 " />
    <path
       id="path54450"
       style="fill:none;fill-opacity:1;stroke:#000000;stroke-width:0.79375;stroke-linecap:round;stroke-linejoin:bevel;stroke-dasharray:none;stroke-opacity:1;opacity:1"
       d="M 162.05702 154.14861 L 162.05701 150.57928 " />
    <path
       id="path54448"
       style="fill:none;fill-opacity:1;stroke:#000000;stroke-width:0.79375;stroke-linecap:round;stroke-linejoin:bevel;stroke-dasharray:none;stroke-opacity:1;opacity:1"
       d="M 166.83498 114.28665 L 167.75891 110.83844 " />
    <path
       id="path54446"
       style="fill:none;fill-opacity:1;stroke:#000000;stroke-width:0.79375;stroke-linecap:round;stroke-linejoin:bevel;stroke-dasharray:none;stroke-opacity:1;opacity:1"
       d="M 164.02022 124.79143 L 166.11285 116.98162 " />
    <path
       id="path54442"
       style="fill:none;fill-opacity:1;stroke:#000000;stroke-width:0.79375;stroke-linecap:round;stroke-linejoin:bevel;stroke-dasharray:none;stroke-opacity:1;opacity:1"
       d="M 158.00105 147.25526 L 160.21999 138.97408 " />
    <path
       id="path54440"
       style="fill:none;fill-opacity:1;stroke:#000000;stroke-width:0.79375;stroke-linecap:round;stroke-linejoin:bevel;stroke-dasharray:none;stroke-opacity:1;opacity:1"
       d="M 156.35513 153.39794 L 157.27893 149.95023 " />
    <path
       id="path54438"
       style="fill:none;fill-opacity:1;stroke:#000000;stroke-width:0.79375;stroke-linecap:round;stroke-linejoin:bevel;stroke-dasharray:none;stroke-opacity:1;opacity:1"
       d="M 171.28731 116.13087 L 173.07223 113.03929 " />
    <path
       id="path54436"
       style="fill:none;fill-opacity:1;stroke:#000000;stroke-width:0.79375;stroke-linecap:round;stroke-linejoin:bevel;stroke-dasharray:none;stroke-opacity:1;opacity:1"
       d="M 164.82292 127.32751 L 169.89229 118.54711 " />
    <path
       id="path54432"
       style="fill:none;fill-opacity:1;stroke:#000000;stroke-width:0.79375;stroke-linecap:round;stroke-linejoin:bevel;stroke-dasharray:none;stroke-opacity:1;opacity:1"
       d="M 154.2215 145.68972 L 156.52305 141.70332 " />
    <path
       id="path54430"
       style="fill:none;fill-opacity:1;stroke:#000000;stroke-width:0.79375;stroke-linecap:round;stroke-linejoin:bevel;stroke-dasharray:none;stroke-opacity:1;opacity:1"
       d="M 151.04181 151.19709 L 152.82647 148.10596 " />
    <path
       id="path54428"
       style="fill:none;fill-opacity:1;stroke:#000000;stroke-width:0.79375;stroke-linecap:round;stroke-linejoin:bevel;stroke-dasharray:none;stroke-opacity:1;opacity:1"
       d="M 175.11062 119.0646 L 177.63488 116.54033 " />
    <path
       id="path54426"
       style="fill:none;fill-opacity:1;stroke:#000000;stroke-width:0.79375;stroke-linecap:round;stroke-linejoin:bevel;stroke-dasharray:none;stroke-opacity:1;opacity:1"
       d="M 165.95425 128.22096 L 173.13776 121.03745 " />
    <path
       id="path54422"
       style="fill:none;fill-opacity:1;stroke:#000000;stroke-width:0.79375;stroke-linecap:round;stroke-linejoin:bevel;stroke-dasharray:none;stroke-opacity:1;opacity:1"
       d="M 150.97591 143.1993 L 155.60765 138.56756 " />
    <path
       id="path54420"
       style="fill:none;fill-opacity:1;stroke:#000000;stroke-width:0.79375;stroke-linecap:round;stroke-linejoin:bevel;stroke-dasharray:none;stroke-opacity:1;opacity:1"
       d="M 146.47916 147.69605 L 149.00305 145.17214 " />
    <path
       id="path54418"
       style="fill:none;fill-opacity:1;stroke:#000000;stroke-width:0.79375;stroke-linecap:round;stroke-linejoin:bevel;stroke-dasharray:none;stroke-opacity:1;opacity:1"
       d="M 178.04435 122.88791 L 181.13592 121.10298 " />
    <path
       id="path54416"
       style="fill:none;fill-opacity:1;stroke:#000000;stroke-width:0.79375;stroke-linecap:round;stroke-linejoin:bevel;stroke-dasharray:none;stroke-opacity:1;opacity:1"
       d="M 168.8455 128.19886 L 175.6281 124.28292 " />
    <path
       id="path54412"
       style="fill:none;fill-opacity:1;stroke:#000000;stroke-width:0.79375;stroke-linecap:round;stroke-linejoin:bevel;stroke-dasharray:none;stroke-opacity:1;opacity:1"
       d="M 148.48549 139.95371 L 156.73355 135.19169 " />
    <path
       id="path54410"
       style="fill:none;fill-opacity:1;stroke:#000000;stroke-width:0.79375;stroke-linecap:round;stroke-linejoin:bevel;stroke-dasharray:none;stroke-opacity:1;opacity:1"
       d="M 142.97812 143.1334 L 146.06924 141.34873 " />
    <path
       id="path54408"
       style="fill:none;fill-opacity:1;stroke:#000000;stroke-width:0.79375;stroke-linecap:round;stroke-linejoin:bevel;stroke-dasharray:none;stroke-opacity:1;opacity:1"
       d="M 179.88856 127.34025 L 183.33677 126.4163 " />
    <path
       id="path54406"
       style="fill:none;fill-opacity:1;stroke:#000000;stroke-width:0.79375;stroke-linecap:round;stroke-linejoin:bevel;stroke-dasharray:none;stroke-opacity:1;opacity:1"
       d="M 174.232 128.85591 L 177.19359 128.06236 " />
    <path
       id="path54402"
       style="fill:none;fill-opacity:1;stroke:#000000;stroke-width:0.79375;stroke-linecap:round;stroke-linejoin:bevel;stroke-dasharray:none;stroke-opacity:1;opacity:1"
       d="M 146.91995 136.17416 L 156.52075 133.60163 " />
    <path
       id="path54400"
       style="fill:none;fill-opacity:1;stroke:#000000;stroke-width:0.79375;stroke-linecap:round;stroke-linejoin:bevel;stroke-dasharray:none;stroke-opacity:1;opacity:1"
       d="M 140.77727 137.82008 L 144.22497 136.89626 " />
    <path
       id="path54398"
       style="fill:none;fill-opacity:1;stroke:#000000;stroke-width:0.79375;stroke-linecap:round;stroke-linejoin:bevel;stroke-dasharray:none;stroke-opacity:1;opacity:1"
       d="M 180.51759 132.1182 L 184.08744 132.11819 " />
    <path
       id="path54396"
       style="fill:none;fill-opacity:1;stroke:#000000;stroke-width:0.79375;stroke-linecap:round;stroke-linejoin:bevel;stroke-dasharray:none;stroke-opacity:1;opacity:1"
       d="M 169.66866 132.11819 L 177.72755 132.11819 " />
    <path
       id="path54392"
       style="fill:none;fill-opacity:1;stroke:#000000;stroke-width:0.79375;stroke-linecap:round;stroke-linejoin:bevel;stroke-dasharray:none;stroke-opacity:1;opacity:1"
       d="M 146.38597 132.11819 L 154.44539 132.11819 " />
    <path
       id="path54390"
       style="fill:none;fill-opacity:1;stroke:#000000;stroke-width:0.79375;stroke-linecap:round;stroke-linejoin:bevel;stroke-dasharray:none;stroke-opacity:1;opacity:1"
       d="M 140.0266 132.11819 L 143.59593 132.11818 " />
    <path
       id="path54388"
       style="fill:none;fill-opacity:1;stroke:#000000;stroke-width:0.79375;stroke-linecap:round;stroke-linejoin:bevel;stroke-dasharray:none;stroke-opacity:1;opacity:1"
       d="M 179.88856 136.89615 L 183.33677 137.82008 " />
    <path
       id="path54386"
       style="fill:none;fill-opacity:1;stroke:#000000;stroke-width:0.79375;stroke-linecap:round;stroke-linejoin:bevel;stroke-dasharray:none;stroke-opacity:1;opacity:1"
       d="M 167.59327 133.60162 L 177.19359 136.17402 " />
    <path
       id="path54382"
       style="fill:none;fill-opacity:1;stroke:#000000;stroke-width:0.79375;stroke-linecap:round;stroke-linejoin:bevel;stroke-dasharray:none;stroke-opacity:1;opacity:1"
       d="M 146.91995 128.06222 L 149.8825 128.85604 " />
    <path
       id="path54380"
       style="fill:none;fill-opacity:1;stroke:#000000;stroke-width:0.79375;stroke-linecap:round;stroke-linejoin:bevel;stroke-dasharray:none;stroke-opacity:1;opacity:1"
       d="M 140.77727 126.4163 L 144.22498 127.3401 " />
    <path
       id="path54378"
       style="fill:none;fill-opacity:1;stroke:#000000;stroke-width:0.79375;stroke-linecap:round;stroke-linejoin:bevel;stroke-dasharray:none;stroke-opacity:1;opacity:1"
       d="M 178.04434 141.34848 L 181.13592 143.1334 " />
    <path
       id="path54376"
       style="fill:none;fill-opacity:1;stroke:#000000;stroke-width:0.79375;stroke-linecap:round;stroke-linejoin:bevel;stroke-dasharray:none;stroke-opacity:1;opacity:1"
       d="M 167.38058 135.19175 L 175.6281 139.95345 " />
    <path
       id="path54372"
       style="fill:none;fill-opacity:1;stroke:#000000;stroke-width:0.79375;stroke-linecap:round;stroke-linejoin:bevel;stroke-dasharray:none;stroke-opacity:1;opacity:1"
       d="M 148.48549 124.28267 L 155.26814 128.19863 " />
    <path
       id="path54370"
       style="fill:none;fill-opacity:1;stroke:#000000;stroke-width:0.79375;stroke-linecap:round;stroke-linejoin:bevel;stroke-dasharray:none;stroke-opacity:1;opacity:1"
       d="M 142.97812 121.10298 L 146.06925 122.88764 " />
    <path
       id="path54368"
       style="fill:none;fill-opacity:1;stroke:#000000;stroke-width:0.79375;stroke-linecap:round;stroke-linejoin:bevel;stroke-dasharray:none;stroke-opacity:1;opacity:1"
       d="M 175.11061 145.17179 L 177.63488 147.69605 " />
    <path
       id="path54366"
       style="fill:none;fill-opacity:1;stroke:#000000;stroke-width:0.79375;stroke-linecap:round;stroke-linejoin:bevel;stroke-dasharray:none;stroke-opacity:1;opacity:1"
       d="M 168.50654 138.56771 L 173.13776 143.19893 " />
    <path
       id="path54362"
       style="fill:none;fill-opacity:1;stroke:#000000;stroke-width:0.79375;stroke-linecap:round;stroke-linejoin:bevel;stroke-dasharray:none;stroke-opacity:1;opacity:1"
       d="M 150.97591 121.03708 L 158.15993 128.2211 " />
    <path
       id="path54360"
       style="fill:none;fill-opacity:1;stroke:#000000;stroke-width:0.79375;stroke-linecap:round;stroke-linejoin:bevel;stroke-dasharray:none;stroke-opacity:1;opacity:1"
       d="M 146.47916 116.54034 L 149.00307 119.06422 " />
    <path
       id="path54358"
       style="fill:none;fill-opacity:1;stroke:#000000;stroke-width:0.79375;stroke-linecap:round;stroke-linejoin:bevel;stroke-dasharray:none;stroke-opacity:1;opacity:1"
       d="M 171.2873 148.10552 L 173.07223 151.19709 " />
    <path
       id="path54356"
       style="fill:none;fill-opacity:1;stroke:#000000;stroke-width:0.79375;stroke-linecap:round;stroke-linejoin:bevel;stroke-dasharray:none;stroke-opacity:1;opacity:1"
       d="M 167.59145 141.7041 L 169.89229 145.68927 " />
    <path
       id="path54352"
       style="fill:none;fill-opacity:1;stroke:#000000;stroke-width:0.79375;stroke-linecap:round;stroke-linejoin:bevel;stroke-dasharray:none;stroke-opacity:1;opacity:1"
       d="M 154.2215 118.54667 L 159.29109 127.32746 " />
    <path
       id="path54350"
       style="fill:none;fill-opacity:1;stroke:#000000;stroke-width:0.79375;stroke-linecap:round;stroke-linejoin:bevel;stroke-dasharray:none;stroke-opacity:1;opacity:1"
       d="M 151.04181 113.0393 L 152.82648 116.13042 " />
    <path
       id="path54348"
       style="fill:none;fill-opacity:1;stroke:#000000;stroke-width:0.79375;stroke-linecap:round;stroke-linejoin:bevel;stroke-dasharray:none;stroke-opacity:1;opacity:1"
       d="M 166.83496 149.94973 L 167.75891 153.39794 " />
    <path
       id="path54346"
       style="fill:none;fill-opacity:1;stroke:#000000;stroke-width:0.79375;stroke-linecap:round;stroke-linejoin:bevel;stroke-dasharray:none;stroke-opacity:1;opacity:1"
       d="M 163.8942 138.97467 L 166.11285 147.25476 " />
    <path
       id="path54342"
       style="fill:none;fill-opacity:1;stroke:#000000;stroke-width:0.79375;stroke-linecap:round;stroke-linejoin:bevel;stroke-dasharray:none;stroke-opacity:1;opacity:1"
       d="M 158.00105 116.98112 L 160.09355 124.79044 " />
    <path
       id="path54340"
       style="fill:none;fill-opacity:1;stroke:#000000;stroke-width:0.79375;stroke-linecap:round;stroke-linejoin:bevel;stroke-dasharray:none;stroke-opacity:1;opacity:1"
       d="M 156.35513 110.83845 L 157.27895 114.28615 " />
    <path
       id="path51761"
       style="fill:#000000;stroke-width:0.79375;stroke-linecap:round;stroke-linejoin:bevel;stroke-opacity:0.493507;opacity:1"
       inkscape:transform-center-y="-0.72264719"
       d="m 162.05702,124.26063 -1.66796,5.27136 -5.52888,-0.0427 4.49804,3.2153 -1.74912,5.24521 4.44792,-3.28433 4.44792,3.28433 -1.74913,-5.24521 4.49805,-3.2153 -5.52889,0.0427 z m 0,2.08913 1.20749,3.81616 -1.20749,1.66188 5.20997,-1.69279 -3.25618,2.32759 -1.95379,-0.6348 3.21992,4.43189 -3.21992,-2.37757 v -2.05432 l -3.21993,4.43189 1.26614,-3.79709 1.95379,-0.6348 -5.20997,-1.69279 4.00248,0.0309 1.20749,1.66188 z"
       inkscape:transform-center-x="-5e-06" />
  </g>
</svg>
